<svg xmlns="http://www.w3.org/2000/svg" viewBox="0 0 4961 3508">
<g fill="#fff">
<path d="M3564 2662v1h-1v3l1 3-1 1v2l-1 1-1 1v2l-3 1-2 1-3 1-4 2h-1l-1 1-2 1-2 1-1 1h-1l-5 2h-2l-2 1h-6l-1 1h-4l-1 1h-4l-1 1h-2v1h-1v4l1 2-1 1v1h-2l-1 1-1 2-1 1h-1l-2 1-2 2v2l1 1-2 2v3l-1 1v1l-1 1h2l3-1 3-1 1-1 4-2 3-1 3-2 2-1h2l1-1 3-1h3l2-1 7-3 1-1 1-1h1l2-2 4-3 1-1 2-1 1-1v-1l1-1 1-2 1-1 3-5 2-3 2-2 1-4 3-5v-1l1-2 1-2v-1l-3-1z"/>
<path d="M2878 2725h-4l-3-1h-1l-3-1h-4l-1-1h-8v-1l-1 1-1-1v-2l1-2h1v-1h2l3-1 1-1 2-1 2-1 3-1 1-1h5v-1l1-1h1l3-1h6l1 1 2 1h2l3-1h1v-1h2l2-1h7l1-1 1-1v-1l1-1h1l2-1h4l2 1 2 1 2 1v-1h5l1 1 1 1h2l2-1 3-1h1l3 1 1-1h2v1l4 1 5 1 1 1h1v-1h1l3 1h1l3-1 2-1h20l1-1h3-5v-1l-1-1v1h-1l-1-2v-1h1v-1h2v-1l1-2v-3l-2-1v-3l2-1h10l1 1v1l1 2v1l1 1v1l2 1 3 1 2-1 2 1 1 1 3 2 1-1 1 1 1-1 1-1 1-1v-2l2-1h1l1-1h1l1-1h-1v-1l2-1 1-1 1-1h2l-1-1 1-2 1-1v-2l1-1h3l1 1v1h1l2 2 1 2 1 1-1 1h-1v1l-1 1h-1v1h-1v1l-1 1v7l-1 1h-1v3l1 1 1 1h1v-1l-1-4v-2l1-1v-1l1-1 3-1h4l1-1h1l1-1h2l2 1v1h5l1 1 3 2 1 1 1 1v1l1 2v5l-1 1v1l-1 1h-4l-1-1-1-1-1 1 1 1v5l1 1 2 1h3l1-1h2l1 1v-1h-2l-1-1v-6h1v-4h1l2-2 1-1 1-1 1 1 1 2v3l2 1 1 1 2 1v1h1l1-1 2 1v2l-2 1v2l1 2 2 1 3 3 2 2v1l1 1 3 4 2 2 1 2h4l-1-1-1-1v1l-2-1v-2h6l1-1 2-2h2v-1h1l3 4 1 2h1l2 1 1 1h5l1-1h-2v-1h-1l-1-3-1-2-2-2-1-2v-3l1-3 3-2 1-1h3l3 1 2 1h1l2 1h4l-1-1-2-2-1-1-1-1h-1l-2-1-1-1-2-1-2-1v-1l-1-3-1-4 1-1 1-1v1l1 1v1h2l3-1 1-1 1-1v-1h1v-1l-1 1v1l-1-1v-3h1v-1h5l1-1 2-2-2 1v1h-1v-2l2-3 1-2h2l1-1 1 1h1l2 2 1 2 1 1 1 2v2l6-2-3-17-3-16 8-2 4 3h1l2 3v1l4 3h2l3 1 1 1 8 5h3l2-2 4-2 4-2h14l4 2 4 3 19 13 8 5 4 3 8 8 6 2 10-4 15 7 8 13 21 5 23-7 17 18 9 20 8 5 10 9 14-19v-1l1-1 1-2h2l12-1 14 9 12 12 7 7 17 17v26l20 8 22 9 1-1h2l-1-2-1-4-2-3v-2l-2-2-1-3-1-2v-2l-1-1-1-2-3-7v-1l-2-5-1-4-2-4-1-2v-1l-1-3-1-4-1-1-1-3-1-4-1-3-1-1-1-4-1-5-2-9-2-8v-4l-1-5-1-6v-6l-1-2v-5l-1-3v-7l-1-4v-3l-2-5v-1l-1-1v-1h-1l-1-2v-2h1l1-2 1-2v-6l1-3 1-1v-2l1-1 1-1 1-1 3-3 2-1 4-3 1-1 2-1 2-1v-1l2-1 5-1h2l3-1 5-1 7-2 8-1 2-1h2l2-1 4-2 4-2 2-2 2-2 1-1 2-2 2-3 1-1-8 1-2-12-2-17 2-1-1-1h3-1l-4-32v-7l-9 1-6-3-11-5-1-1h-1l-1-4-8 1-6 1h-1l-1-11h2l-1-11-23 4-12 1-2-12-7 1-3-15 12-3-3-22-17 3v-6l-13 2-2-14 9-2v-5l20-2v-4h4v-9h4l-2-16 1-1 15-2-1-1-3-19-13 1-2-12-3-20h1l-14 2-1-9h-3l-5 1-3 1h-5l-1-8-5 1-2-13-6 1-3-18-1-12v-2h-9l-1-5-2-18-1-5-2-10-1-10-1-7 6-1h2v-1l2 1 1-1-1-6h-1l-1-3v-3h-3l-2 1h-3l-2-9-1-4 2-1h4l2-1h2l-1-1v-1h-1v-2l1-1v-1h-3l-3 1-20 3 1 9-5 1 1 4-9 2-3-4-7 1-1 2-6 6h-1v-1l-2-1v-2l-1-6-2-11v-1l-2-14-4 1-2-12h2l-3-13-2-10-2-9-15 2-12 2h-5l-15 1h-17l-1 1-2-1h-3l-1 1h-3v-1l-1-5v-10l-1-1-1-3v-2l-1-1h-2l-1 1h-3l-5 1h-4l-2 1h-3l-4 1h-2l-5 1-14 2-7 1h-2l-11 2h-1l-6 1-6 1-1-3-1-6v-2h-3l-6 1 1 3h-5l-2-11 1-2 1-2h1v-1l-1-6 5-1h1l-1-5h-4l-1-6-1 1-1-5-4 1-12 2-12 2 2 8 1 8v1l-8 2-6 1h-2l-9 2h-1l-4 1-8 1-5 1 2 5 2 3 3 4-4 2h-2l-3 2-2-1 1-1h1v-3l-1-1-1-2h-2l-1-1h-1l-2-2-1-1v-1h-1v-2l2-2 1-1v-6h-2l-1-1h-1l-1 1h-1l-2 1-1 2-2 1-1 1h-1l-2 1-1-1h-3v-1h-1l2-2v-3h-1v-1l2-1 1-1 1-1 1-3v-3l-1-2-1 1h-1l-2 1-2 1h-4l-1-1h-3l-1 2h-2l-2-1-8-2-10-2-1 7v4l2 10 4-3 8-4 1 12-6 2 1 4v4l1 3h-1v2h-1l1 6 1 5v1l1 4 1 6h-3l-7 1-4 1-4 1v-25l-6 3 1 7 1 2-5 1h-1l1 2v1l1 3-1 1h-2l2 10h-1l2 7h2l10-2 6-1 4-1 2 17v1l1 1v2l1 2v2h-3l-6 2 1 6 1 1v2l-3 1v2l1 4h4v1l5 2-1 2 7 6h1l5 6h-2l-1 1h-2v1h-1v-1h1l-1-1h-1l-1 1h-1v1h-2l-2-1-2 1v4l2 3v1h2v1h-1v1h-1l-1 1h-3l-1-1-2-1-1-2 1-1-1-1-1-2h-4v1h-2l-1-1-1 1 1 1h-1l-1-1v2l-1 1h1v5l-1 1-1 1-1 1-1 1h-3l-1 1v3l1 1h-4l-1-1h-2v-4l-2-2h-2v1l1 1h-4v-1l-5 1h-2v3l-2 5-1 2v1l-2 2-1 1-2 2-1 1h-1l-1 1v5l-2 2v2l-1 1-2 1-1 1h2l2 2 1 1v1l-1 1v1l-1 1 1 1 1 3h2v1h1l1 1 2 1 10 6 8 5 6 4 1-3 3-5 2-4 6 3 3-6 5-9-5-2-1-1 4-8 2-3 5 3 9 4-3 5-4 8-3 5-4 7-3 6-1-1-4 8-2-1-2 5-7 10-3 5-1-1-6-3v-1l-3-1-2-2-2-1-2-2h-2l-1-1-2 3-2 4 2 5 1 4 1 6 7-1 1 6-10 1-5 1 1 7-11 2-8 1-4 1 1 1v1l-1 2v1l-1 1 2 1 1 1h1l2 1h2l8-2 4-1h1l1 6v1h1l6-1 1 4-5 1-8 2h-2l-4 1-6 1-7 1-3 1h-1v2l-3 1h-2l-4 1v-1l-1 1 1 2-1 1h-1l-1 1-1-3-5 1v-1l-10 1v1h-3l-1-8-1-5v-3l-3 1h-2l-6 1h-2l-6 1-1 1v-2l-7 1-1-2-2 1v-2h-1v-4l-7 1v-4l1-1-2 1h-2v1l1 3v4l1 4-4 1 1 8v1l-2 1h-1l-5 1-8 1-2-9h-3l-8 1-2 1-8 1-5 1 2 9v3l-8 1-4-2-3-2-1-1-2-2h-1l-6-4-10-6-3-2 1 3 3 4 1 2-5 4v1l-5 1 1 4 1 4v5l-2 1-11 3 1 4-10 2-6 1-1-3-7 1-6 2v3l1 3 4-1v5l2 13-3 1-1-1-2 1-15 2 1 4-6 1v2h-1l-2 2-5 6-4 5-3 17-3 4-5 7-10 11-1 3-1 3-2 3-1 1-3-1-3 2-2 1-2 5 1 14-1 4 1 11-1 27-2 1h-2l-3 1-2 1-1 1-1 1-1 2-1 1-1 2h-1l-1 2v1h-1l-1 1v1l-1 1-2 3h-1l-1 1-2 3h-1l-1 1-2 2-1 2h-1l-1 1-1 1h-2v1l-2 1-4 1-2 1h-5l-3-1h-1l-2-1-2-1-3-2-3-2-1-1-1-2-3-3-2-4-2-3v-2l-1-3v-8l1-2v-8l-1-1v-4h-2l-1 1-1 1-1 1v2l-1 3v7l1 3 1 5 1 3 1 2h1l1 2 1 2 1 2 1 1 3 3 1 1 3 2v1l4 3 3 1 2 2 3 1 1 1 2 1 3 1 4 1 2 1 5 1 4 1 1 1 9 2 4 1 13 3h1l10 2 3 1 3 1 5 1 7 1 3 1 6 1h1l8 2 6 1 8 1 3 1h3l3 1 4 1h2v1l2 1 5 1 3 1 3 1 8 2 3 1 5 2 4 1 4 2 6 1 6 3h2l1 1 2 1h2l5 1 10 4h2l6 2 2 1h1l7 2 4 1 2 1 8 2 5 2h3l1 1 4 1 5 1h6l5 1 2 1h2l3 1 5 1 2 1 6 1h1l3 1 2 1 5 2 4 1h4l6 2h3l2 1h2l4 1 7 1 2 1h5l4 1 3 1h4l2 1 5 1h3l4-1h6l7 1 1 1h13l2-1 2-1h6v-1h-1l-1 1h-1l-1-1-1-1-3-1h-1l-1-1-1-1-2-1h-1l-2 1h4l-1 1h-2v-1l-2 1-3-2h-3l-1-1-1 1h-2l-2-1-2-1-1-1h-1l-1-1-2-1-1-1v-1l-1 1-1 2-1 1h-2l-1 1-1-1h-3l-2-2h-1v-1l-1 1v-1l-1-1-1-1h-1v-1l-2-2-1-1h-1v1l-1 1h-1v1h-2l-2 1-1 1-1 1h-2v1l-1-1v2l-1-1-1 1v1h-1l-1 1v1l-2-1-1 1h-10l-2-1-4-1h-2l-3-1h-1l-1-1h-3v-1h-2l-1-1h-3l-1-1h-1l-2-1-3-1v1l-1-1-2-1z"/>
</g>
</svg>
