<svg xmlns="http://www.w3.org/2000/svg" viewBox="0 0 4961 3508">
<g fill="#fff">
<path d="m2666 2053 1 4 9-1 1-1 11-2 4-1 8-1-1-4 5-1 7-2h2l1 1 6-1h4l1 3v2l5-1 1 4h1l1 5h5l2 11h1l4-1h1l-1 1 1 2 1 1v-1h1v-1l1-1 2-1-1-1h1l1 3v1l6-2 6-1 7-1-2-9-1-3 5-1-1-8 8-2 8-2h2l1 2h1l2 1v-1l1 2h1v1l1 2 2 2 2 1v1l2 1 1 1h1l1 1 1-1v-1l1-1h1l3-1h1l2-1h1l1 1h-3l1 1h1l3-1h1l1-1h1l1 1-1 1v1l1 2 4-1 4-1h2l6-1 2-1h5l2-1 4-1h4l12-3h4l3-1v-1h1l8-1-1-3 2-5 3-1 1-4v-1l-1-1-1 2-1-8h5l-2-14h-1l-5 1v-3l-1-3 5-1h1l5-1 5-1 8-2h1v-1l-2-3v-3h-3l-8 2v-3l-1-7-1-5 1 1 6-2h5l8-1 4-1 2-1v1l1 1 1 1h-1v2h3v2h2l1-1 3-1 5-1h5l1-1v1l7-1v-3l-2-9v-2h-1l-2-1-1-3 3-1 1 3 8-2-1-2 4-1 4-1h1l1 1 1 2 2-1 2-1 4-3 2-1v4l2 11 1 5 1 3v1l2 1h2v-3l1-1v-4l-1-3h2l1-1h1l-1-6h1v-1h3l8-2h3l3-1h3v-1l-1-1v-2l-1-1 1-1 1-1 3-1 5-1 2 9h1l-1-8v-2h-1l-1-4h3v-2l5-1v-1l14-2-1-3v-2l4-1v-2h-3v-1h-1v3l-10 1v-5l9-2v-1h4l-1-4v-5h-3l-1-5v-4l8-1 1 9 6-1 1 6 1 14h4v-1l1-1v-1h1v-3l1-1 1 1h2v-4h-2l-1-2-3-5-1-2 6-1h1v-2h11l1-2h5v-1h4l2-1 7-1h1v-1l-1-4v-2l9-2h4v-3h5v-4l-1 1-2-2 3-1 1-6h3v5l1-1 2-1v1l3-3 3-2v-2l-2-6-1 1-1-10h-4l-1-1h1v-2h1l-1-2-1-1h1-2l2-9v-6l-2-1h-1l-2 1h-6l1-8h-4l-1-3 2-2 2-2v-1h-2l1-4v-3h4v-2h2v-1h1v-4h-3l1-8v-6l-1-8-1-8-3-21 3-1-2-4 3-1-1-4 6-1v1h2l-1-4 8-2h5l7-1 2 6 8-2-3-14 4-1v2l7-1v3h1l1 3 11-8 4-3h2v-1h3v-1h1l1 1 1-1h-1l1-1h2l1-2h2l-1-7h1l-1-2h-1v-4l5-1 7-1 1-10-10 2-5 1v-1l-1-4h-4l-3-3-2-1-1-2-7-6-8 1-1-2h-5l-1-1h-2l-3-10-4 2v-2h-1l-1-1 1-1-1-3-1-1v-5l1-1v1h1v-1l-1-6 5-1v3h4v2l11-2v-2l1-1 1-2v-1l1-1 1-1v-1h3l1 3 2-1 1-1 4-1-1 1 1 1h1l1 4v3l1 1h4l2-2 3-1 2-1 1 3 6-1-1-2h1l4-1 1 4v1l1 5 3 1v2h6v-8l-1-5h1l3-13v-1l1-1h2v-3l2-5v-1l2-8v-2l2-6-2-1-1-1-4-1-2-1-3-3-1-1-1-2-2-2-2-1-3-1-2-1h-8l-3-1-2-1v-1h-1l-2 1-4 1h-3l-1 1-2-1-2-1h-1l-1-1-1-2-2-1-2-2-3-7h-6l-2 1v3l-1 1-3 3h-1v1l-1 1-1-1-2 5 2 1-1 2-4 7h-2l-1-2-3 1v2h2v1h-8v-3h-1l-1-5-11 2v2h-1l-2 2v1l-2-1-1 1 1-8-1-1v-1l1-5-12-2-1 4v1l-7-4-1 1v1l1 9-2-1-6-5-5-3v-2h-2l-3 2-1-1-3 1-2-4 4-1-4-8v-1l-4-8 1-1-1-2 3-1 1-1 2-1 1-1 1-1v-5l-1-2-1-1h-1v-1h1v-3h-1v-1l1-2v-1h-2l-3-3-1-2-3-3h-2v-2h-1l-1-1-2-1v-1h2l1-1h1l1 1v-1l1 1 1-1 2-3 2-5-4-2-1-1-3-4h-2v-4l-1-3-6-6-1 1h1l1 5 1 2v27l-1 1h-1l-1-2h-1l-2-1v3l-3 1h-1l-1 1h-2l-1-3h-1v-1l2-2-3-3-1-1-5 1h-1l-1-1-1-1 1-3v-3l-2-3 2-2v-2l-3-3-1-2-2-5-1-1-2-1-1-2v-3l-5-4h-2l-5-1h-3l-2 1h-1l-2-1-2 1-1-1h-1l-1-1v-2l-1-1-1-2h-1l-2-1h-1l-1 1h-1l-1-2-2-1v-5l1-2v-4l-1-2h-4l-2 1-2 1-2 2h-2v1h-2l-8-1h-2l-3-1-2-3-2-1h-2l-5 7-4 2-1 1-1 1-2 2h-1l-1 1-2 4-3 3-2 2-1 3-1 2v1h-1l-1 1h-1v3l1 1v4h1l1 1v1l2 1 2 1 1-1 2 2 6 1h2l1 1 4 1h3l4 1h5l2 7v6h-4l-6 2-4 1-3 2-1 1-2 1-2 1 2 1h1l1-1v4l1 2v2l1 5v6h1l1 1v1h-2l1 1h-1l1 1-1 1v1l-1-1h-2l1 2v1h2l2-1 1 2v1l2 2h3l2-1v4h-8v4l-4 1-5 1h-4v2h1-2l-5 1h-2l-8 2-1-5h-5l-4 1v-4l-3 1v-1h-2v-1h-1l-1 2v1l1 1v3h1v1h-1l2 4h-5l-2 1h-4v-1h-1l-1 1h-1l-1-1h-1v1h-3l-1-1 1-1v-1l-1-1-1 1h-3v1l1 1v1l-1-1-1 1v1h-3l1-3-3 1-2-1-2-1v-1l1-1h-5l1 2 1 1-1 1v2h1l-1 1 1 1h1l1 2h-2l-1 1h-6l1-1v-1l-1-1 1-1-1-1-1-1-1-1v-1h-1l1-2 1-2-1-1 1-1v-1l-1-3-2-1-1-1 1-2-1-1v-1l-1-1 1-1-1-2 1-1-2-2v2h-2l-2 2-1-1v-2l-2-7 2-1h-1v-1h-1l-1-1-1-1-1 1h-1v-2h-1v-1l-1-1v-2l-2 6-2-1-1 1-1 2v1l-1 1-1 1h-4v-1h-1l-1-1h-2l-1-1v-2l-1 1h-1v-3h-1l1-1 1-2-3-8h-3l-1-2v-2h-9l-1 2-1 1v-1l-3 1v-1h-1l-1-2h-1l-1-2 1 3h-1l-1-1h-4l-1 1v4h2v1l-1 1v1l-1 1v-1l-1 1h-2l-1-1-1-1-2 1 1 4-1 3v1l-1 5-1 7-1 3-1 7-1-1-2-1-2-1h-1l-1-1h-1l-2 1v2l1 1-1 3v2l-2 1h-3v1h-5l-2 1 1 1-1 1v4h-1 4v1l2 2v11l-2 2h-11v4h-1l-1-2h-1v1l-2-1 1-1h1v-1h1v-1l-1-1v-1l-2 1-1-2-7 2h-2l-1-2h-1l-3-4-3 3-1 2-2 2-2-1-2 2-4 1-3 1h-1v-1l-1 1-1-1v1h-2v2l-2 2-1 1h-1v3l-2 3-3-3 2-4v-4l-5-2-6-3-3-2-4-3-3-2h-1l-1 1-1-1v1l-2-1-1-1h-1v-1l-1-1v-2h-1l-2 3-1 1-6 2v-1l-1 1-2 1-3 2-6-3-3 1h-4l-1 2 1 1v1l-1 5v1l-2 4h-1l-1-2h-7l-3 1v-1h-1v-3l-2 1h-3l-1 2-2 1-2-1-1 2 1 1-1 1-2 1-1-1-2 2v-2l4-6-3-2-4 5h1l1 1 1 1-3 1 1 2 2 1v1h-1l1 2 1 1-1 1h-1l-4 4 2 2-3 6-1 2 3 1-1 2-1 1-4 2-4 2 1 5-7 2-3 2-6 3-9 7-3 3 3 3-3 5h-1l1-2v-1l-1-1v-1l-2-1-1 1 1 2v1l-1 2-1 1-2 1v1h-1l-1-1 1-1 1-2v-1h-1v1l-1 1h-1v2l-1 1 1 2v1h-2l-1-1h-1l-1-1 1-1-2-1v-1l-2-1-1 1v3h1l-1 2h-3l-2 1h-1l-1-1v-1h-2v-1l-1-1 1-1v-2l-1-1-1-1v-1l1-1-1-2h-2v-1l-2 1h-3l-1 1-1 1h-2l-1 1-1 1-1-1-1-1v-1l-1-1v-1l1-2-1-1h-2l-2 1h-1l-2-1h-2l-1 1 1 1v2h-2l-1 1-1-1-1-1h-5l-1-1-1 1-1 2-1 1-1 3-1 1-1 1h-1v-1l-1-1-1-1v1h-1l-1 2-1 1-1-1v-1l-1 1-1 1v3l-1 1h-1l-1-1h-1l1-1-1-1v-1l-1-1h-3v3h-1l-1-1h-1l-1-1v1l-2-1v-1l1-1v-2h-2v-2l-1-1h-2l-1 1h-1l-1-2v-1h-3l-1-1h-1l-1 1h-2l-1 1h-1l-1-2h-1l-2-1-2 1-2 1-1-1v1l-1-1-1-1-1-1v-1h-1l-1-1h-1l-1 1v1l2 1-1 2h-2l-1-1-2 1h-2l-2-1h-2l-1 1h-1v2l1 3-1 1h-4l-1-1v-1h-5l-3-1v2l-3-1h-1v-2l-1-1-1-2-1-2-2-1-2 5-5-2-7-2-2-1v4h-8l-6-3-4 1-7 3-6 2v5h-4l-3 8h-5v-1h-3l-1 1 2 2 3 3 1 2 1 1 3 1-1 5h-1l-1 2v3l-1 1 1 1-1 1v1l-11 3h-1l-1 2-3 5-2 4 3 3h1l7 6-4 4h1l2 1-1 5 1 1h1l-1 4-7-1v1h-2v1l-6-1-1 1h-1v-1l-4-1v2h-3l-1-1-5-6-11 3h-3v3l-4 10v6h-6l-3 1h-3l-4 1-3 2-1 1-1 1h-1l-7 2h-2l-4 1 1 6-9 4h-1l-2-1-4-3-9-5-3 2v3l1 2h-1v1l-1 2-1 1v1l-2 1h-2v3h-2l-1 1 1 3h-3l-5-1-1-1-1-1v-2l-1-1-2-1h-1v-1l-2-2-2-1-1-1h-2l-11 2v2h-9l-1 5-2-1h-1v2h1v3h-1l-4 2v1l-2 1-1-1-5 1v1l-6 4v-1l-5 2v1l1 1 1 1-1 1-4 3-2 2-9 7-1 1-6 5 1 2h3v1l1 1v2l1 1 1 1-2 1-1-1 1 3v4h-1l-1 1h-3l-1 6h-3l1 1v1h-2l2 2-1 1-2 1v1h-1l-1-1h-1l-1 4h2v2l1 1v2h2v1l1 1v1l1 4-1 1 2 3 1 3-1 3v1l-1 1h-1l1 1h-1v1l1 1v1l1 2 1 2h1l-1 1 1 1 2 1 3-2 2-1h2l3-1 2-1h1l3 2 2 2v1l1 1 2 2 1 1-1 1 4 1h1l3-6 3-4 3-7 1-2 12 7 2-3 2-3 1 4 2 1 1 2 1 1v4l-2 2v5h3v-1h3l1 2h1l1 2-1 1 1 2 1 1 1 1v3l1 1 1 1 2-1h1l1 2 1 1 1-1h2l1 1h1l1 1h1l2 1h1v-1h1l1-1h1l2-1h3l1 1 1-1 1 1 1 1 2-1h2v-1l1-1h2l2-2h1l1 1 1 1 1 1h4l1 1h3l1 1 2 1 1-1h2l2-2h2l2 2 1 1h2l2-1h4l1 1h1l1-2 2-1-1-1v-4h3l2-2 1-1h2l1-1h1v-1l1-1 3 1 1-1h1v1l1 2 1 1h3l2 1h1l3-1 1-1v-1l1-1 2 1 1 1 1-1 1 1 3 1 1 1 1-1v-1h3l1-1h2l1 1v2l1 2 1-1 5-8 7 7 1 3h7v-1h7l2 1 1-1v-3l4-1 6-2-2-2-1-1v-2h5l4-1h2l8-3v4l13-2h5l1 4 1 5 4-1h1v-2l1-2h1v-3h2v3l5-1 2 8v1l4-1v1h1l1-1 1-1h4l1 2h1v-2l1 1 3-1v-1l1-1 1 1v1h1v-6l1-1h5l1 1h1l2-2h2l1 1h3l-1-4h1l-1-5-1-6 3-1 11-2 5-1v4l10-1 12-2 1 3 4-1h2v1l1 1v1l1 1v1l1 1 2 2h1v3l2 1-1 2h-1l-1 1-1 2 1 1 1 1h1l1 1 2 2 5-1 1 3 1 5 1 6v2l1 5 8-3h1l11-4 4-1 1 8v1h2l1-1h1l2-1 1 1 1-1 1 1v-1h2v-1l1-1 1-3 1 1h2v4l1 5 3-1 4-1-1-3 14-3 5-1 1 8 1 6 1 3-6 2-1 1v1l-1 5h5v3l1 3 3-1 1-1 1-1v-5h11l-3-13v-2l2-1h3l3 5v-2l1-1h2v-6h1l-1-3h1l6-2h2l3-1h2v4h1l1 4h2l8-2h1v2h1l1 5 1 4 4-1 3-1h3l2-1 7-1 1 8 2 9v4l1 3-11 2h-3l1 10 2 7 1 9 2 10v1l1-1h3l1-1v-2h1v-1h1l-1-1 2-1v2l5-1v-1h6l5-1 2 10v2l1 6v1l5-1 1-1v3l1 4 1 2v9l1 1v3h-8v6h-1l1 4v1l2 2 1 1v3l-11 2 2 9z"/>
</g>
</svg>
