<svg xmlns="http://www.w3.org/2000/svg" viewBox="0 0 4961 3508">
<g fill="#fff">
<path d="M3133 3302h-2l-1 1h1v1h-1l-1 1h-1v-1 4h1v-1h1v-1h2l-1 1v1h1v1h1v3h1v-3h-1v-1h3v-1h1-1v-2h1v1h1v-1h1v-1h-4 1-3v-2zm1-27v-1h-1 1v4h2l-1-1v-2l-1 1v-1zm-26-8h1v-1 1h-1v1h-1l1 1h-1v1h-1 1v2-1h-1v-3h-1v1h-2v1h-1v1-1 1-2h-1v1-1h-1v3h-1 1v1h-1v3h-1v-5h1v-1h-1v-1h1-2v1h-4v3h1-1v2-1 1h-1v-1h-1v-3 1h-2v3l1-1 1 1-1 1v1l-1 1v2l1 1v1l1 1 1 1 1-1v-4h1l1 1v1h1l-1 1v2h2v1h1v-1l1 1h1v-1h1l-1-1h2v1l1 1h1v-1l1-1v1h1v-1h1v-1h1v2h1v3h2l1 1 1 1 1 2h-1v1h3v-9h-1v-1h-1 1v-1h-1l1-1h1v-1h-1 3v-2l1 1h2l2 2v1l2 2v1h3v-2l-1-1v-2l-1-1-1-1 1-1v-2l1-1v-1l-1-1h-1v-3h-2v-1h-1v2h-1v-1h1-1 1l-1-1h-1v1h-1v-1h-1v1h-1v-1h-2 1-1 1v1h1v1h-1v-1 1-1 2h-1 1v3h-1v1h-1 1-1v1-2h1v-2h-1v-5 1h-1l-1 1h1-1v-1h-2v1-1h-1v1l-1-1zm10-10-1-1h-1v2h-1v1h-3v1h-1v1h-1v3h-1 1v-1h1-1 5v1h2l-1 1h4v-2 1h1v1h1l1-1h1v2h1v-1h1v-3l-1 1v1h-1v-1 1-1h-1v-3l-1 1 1-2h-1v-2h-3v1l-1 1v-2z"/>
</g>
</svg>
