<svg xmlns="http://www.w3.org/2000/svg" viewBox="0 0 4961 3508">
<g fill="#fff">
<path d="m3622 2581 1-1 1-1 1-1 2-2h1l5-2h3l1-1h2l2-1 1-1 2-2h1l4-2 2-1h2l1-1 3-2 5-3 2-2 3-2 1-1 3-3v-1l2-1 2-2h1l1-2 2-3 4-4 3-4 3-5 2-2h1l1-1 1-2 1-1 1-2h1l-10-10 10 10 2-1 1-1 2-1 3-2 2-1 5-2 4-2 3-1 3-2h1l3-2 2-2 2-2 2-1 1-2h3l1-1h1l1-1h1l3-2 2-1v1l2-1 2-1h3l5-1h9l1-1h4l1-1h12l5 1 2 1 2 1 2 1h2l3-1h1l3-1 2-1 3-2h10l2 1 3 1 1 1 3 2 3 2 1 2 2 3 2 2 1 2 1 3 1 3v3l-1 1-1 3-1 1v2l-1 1-1 1v2l-1 1v2l-1 1-1 2v1l-1 1-1 2h-1v1l-1 1-1-1v2l-1 1h-1v1h-1v-1l-1 2-3 2v1h-2l-1 1-2 1h-1l-2-1v-1l-1-1v-1l1-1v2h1v-1l-1-2-1-1v8l-1 3-1 2-1 2h5v1l1 1 1-1 2-2 2-3 2-3 3-3 1-1 1-2 1-2 5-7 2-3 1-2 1-2 2-3 1-2 2-3 1-2 2-5 1-2 2-3v-1l2-3 1-1v-2l2-2 1-2 1-1 1-2 1-1 1-2h1l1-2 2-2 4-6 2-1 2-2h1v-1l1-1h1l3-2 3-2 2-1 3-1 3-2h2l1-1 5-2 3-1h1l1-1 5-1 3-2h1l4-1 2-1h4l3-1 3-1 2-1 1-1h1l1-1v-1h1l2-1 3-1h25l1 1h2l1 1h1l4 3 1 1h1l4 3v3h1v-1h1l2 1 4 4 4 5 1 3v2l2 2v3l-1 2-1 3h-1l-1 1v1h-1l-2 1v-7l1-3v1l-1 1v7l-1 1 1 1v2l-1 1h-1v-2l-1 1v1l-1 1-1 2v1h-1v2l-1 1v1h-1v-1h-3v-1l-1 2 1 1 1-1v1l-1 1h-2v-1h-1v5l1 1h1l2-1 1-1h1l2-2v-1l2-2v-1l1-1 1-2 2-2 1-1v-1l1-1 1-1v-1l1-1v-1l1-1v-1l1-2 1-2v-2l1-2 1-1v-3h1l1-2v-2l1-3 1-2 2-6 1-2 2-5 2-5 1-1 1-2 1-2 1-3 1-1 2-2 1-1 1-1 2-1 2-2 2-1 1-1v-1l1-1 4-3 1-1 1-1 3-2 2-2 2-1 4-1 4-1h4l3-3 1-1h1l2-1h-1l-2-4-1-2-2-4-2-3-1-1-2-3 2-3 16-13 3 3 5-4 2-1 3-3-3-2-10-8 3-4 6-8-3-4-4-4-3 3-2 2-15-8-3-1-7-4h1l1-1h1l1-1v1l1-1h1l1-1v-1l-1-1v-1l1-1h-2v-2h1v-1l1-1v-2h-3v-1l1-2-1-1 1-1-1-1h-1l-1 1v1l-1-1-1 1-2-1 1-1v-1h-1v-1h-2v-1h1v-1l-1-1-2-1v-2h-2v-2h-1v-2h-2v1h-1v-1l-1-1v-1h-1l-2 2h-1l1-2v-2h-2l-1 2v-1l-1 1-1-1v-1h-1v-1l-1-1-1 1-1 1-1-1v-2l-1 1h-1l-1-2-1-1-2-1v-1h-1v-2h-1v-2h-1l5-1h5l1-2h10v2h8l-1-8-1-3h-1l-2-5-1-9-1-8v-3l-2-6-1-4h3l2-1 1 4h7l6-1 8-1v2l2 1v3h1l7-3 5-2v-3l3-2-1-1 6-3 2-1-4-14 6-2h5l4 15 10-5h1l-2-7 2-8 3-6 1-2 3-8v-2l2 1 1-3 2-5-3-1 2-4h-2v1l-4-1h-3v1h-1v-1h-5v-1l2-3-4-1-5 9-1 2-5-3-3-3-7-6-5-4-1 1-2-1-3-5-3-6-7-12-6 6-4-7-1-2-4 3-3-4-3-5-6 6-2 2-5 5-3-5-2-4-4-8-3-5-2-3-3-7-2 2-12 6-3 2h-1v-1l1-2h-5v-5l2-1h3v-4h-6l-5 1v-4l-2-7 2-1h8v-2l4-1v1h1v1h1v-2h1v-1l1-1-1-1 1-1h2v-1l-1-1h1l-8 1-7 1h-6v-3l-2-8v-2l-1-8-4 1-1-3v-3l-1-5v-1l-1-5-1-8-9 2h-3l-8 2-2-1v-12h3l1-6 1-4-1-4-5 2-17 4 1 3-11 2h-10l-2-1h-2l-2-1h-1l-2 1-2-1-1-1h-3l-3 1-1-4h-13v1l1 1v1h1l-1 1 1 1v2l-6 2h-3v-1l-6 1v-3l-2-2v-2l-19 1 1-1h-1l-1-2-1 1v-2l1-1 1-4v-2h-1l-4 1 1 3h-3l-10 2-8 1v-3h-7l-2-7h-3l-1-5 7-1 1 1 1 7h2l4-1h3v-1l1-5 1-1v-1l1-1 1-1 1-1-1-1-2 1-1-3 1-1-3-6-2-3 3-1-2-5h-1l-4 2-2 2-2-7-1-7-2 1-4 2-1-3 6-2-1-4-1-8-5-1h-1l-2-6 8-2-2-9-1-5-20 7v-4l2-2h1v-1l-2-2-1 1-1 1v-3l-1-2v-1h1l1-1h2v-4h-3l1-1v-1l-3-1h-1l-9 4-2 1-5 1-19 5h-4l-1-4-1-6v-3l-2 1-3 1h-2l-2-1h-4l-4 1-3-5-6-11-1-2-2 2-4 1-9 5-10 6-8 4-7 4-8 4-1-7v-1h-2v-1h-3l-1 1-1-1-1 1h-2v-1h-2l-2-1h-1l-1-1h-3l-1-1v1l-6 1-1-3v-1h-2l-2-1v-1h-2l-2-1-1-1-1 1h-1l-2-1h-2l-1-1-1 1v-1h-2v-1l-1 1h-1l-1-1-1-1-2-1-2-2-2-2-2-1h-7l-2 1-3 1-2 1h-3l-3-2h-1v-1l-3 1h-4l-1 1-1 1-2 1-3 1-1 1-2 1h-2l-1-1h-3l-3-1h-8l-3 2-1 1h-4l-2 1-1 2-2 2-1 2v2l-1 1h-1l-3 1h-3l-4 1-2 1v-3l-2 1-10 1-3 1v-1l-4 1-1-6v-3l2-1-1-6-9 1-1-2h-6l1 8 3 17 1 6-4 1h-3l-2 1 1 5 1 9h3l1 4v2l2 7 9-2v3l2 8h-1l1 7 2 3-10 2-1-5-1-1-1 1-6 1 1 5-1 2-12 2 1 5 1 8 1 5 1 2 2-1 1-1h2l2-1 1-2 2-1h2v1l2 11 7-1 1 3v4l1 2-4 2-2 1-1 1 1 6 3 15v2l9-2 8-2 2 12h-3l1 5h-2l2 6h-7l2 14-9 1 1 5 2 9v2l4-1 3 13-1 2v1l-1 2-1-1-1-1v2l2 1v2h-2v1h3l2 2-2 2h-1l3-1h2l1 1v2l-1 2h-5l-2 1h-1 8l2-2 1 4v3l-1 2-3 2-2 1-4 2-9 3-4 1h-4l-5-2-3-1-4-3-5-3-3 1-4-1h-9l-4-1-1-1-6-2-4-1-2-1-3-1-3-1h-1l-1-1h-20l-4 1-5 1-2 1-7 4-5 3-3 2h-8l-5 1h-3l-4 1-5 1-7 1h-2l-10 1h-2l-8 4-1 1-1 1-2 2-3 1-3 1-3 1-8 2-2 1-2 1h-6l-3 1 10 4 15-2 2 9 2 10 3 13h-2l2 12 4-1 2 14v1l2 11 1 6v2l2 1v1h1l6-6 1-2 7-1 3 4 9-2-1-4 5-1-1-9 20-3 3-1h3v1l-1 1v2h1v1l1 1h-2l-2 1h-4l-2 1 1 4 2 9h3l2-1h3v3l1 3h1l1 6-1 1-2-1v1h-2l-6 1 1 7 1 10 2 10 1 5 2 18 1 5h9v2l1 12 3 18 6-1 2 13 5-1 1 8h5l3-1 5-1h3l1 9 14-2h-1l3 20 2 12 13-1 3 19 1 1-15 2-1 1 2 16h-4v9h-4v4l-20 2v5l-9 2 2 14 13-2v6l17-3 3 22-12 3 3 15 7-1 2 12 12-1 23-4 1 11h-2l1 11h1l6-1 8-1 1 4h1l1 1 11 5 6 3 9-1v7l4 32h1-3l1 1-2 1 2 17 2 12 8-1 7 6 7 7 3 3 15 14 3 1 11-17 1-2 1-3 3-4v-1l3-3 1-2 3-4 1-2 1-2 2-3 1-1 1-3 2-2 2-4 2-2v-2l3-3 1-1v-1l1-1 1-1 1-2 1-1 2-3 1-1 1-1 1-1 1-1v-1l2-1 2-3 2-3z"/>
</g>
</svg>
